<?xml version="1.0" encoding="utf-8"?>
<!-- Generator: Adobe Illustrator 14.0.0, SVG Export Plug-In  -->
<!DOCTYPE svg PUBLIC "-//W3C//DTD SVG 1.1//EN" "http://www.w3.org/Graphics/SVG/1.1/DTD/svg11.dtd" [
	<!ENTITY ns_flows "http://ns.adobe.com/Flows/1.0/">
]>
<svg version="1.1"
	 xmlns="http://www.w3.org/2000/svg" xmlns:xlink="http://www.w3.org/1999/xlink" xmlns:a="http://ns.adobe.com/AdobeSVGViewerExtensions/3.0/"
	 x="0px" y="0px" width="772px" height="128px" viewBox="-15.832 -15.125 772 128" enable-background="new -15.832 -15.125 772 128"
	 xml:space="preserve">
<defs>
</defs>
<path fill="#D42029" d="M25.42,23.799c-1.741-1.57-3.584-3.625-5.035-5.145C22.223,12.49,23.854,6.235,25.575,0l-0.064,9.255
	L25.42,23.799z"/>
<path fill="#004E97" d="M30.912,18.248c-0.35-1.424-0.705-2.849-1.068-4.278c2.609-0.71,5.044-1.716,7.689-2.339L30.912,18.248z"/>
<path fill="#004E97" d="M19.309,18.306c-1.419,0.385-2.963,0.802-4.472,1.158l-1.869-7.632
	C15.277,14.096,16.999,15.991,19.309,18.306z"/>
<path fill="#D42029" d="M50.497,24.003H36.259c-3.15-0.204-7.104,0.12-10.475,0c1.563-1.518,3.201-3.328,4.828-4.688
	C37.172,20.878,43.879,22.433,50.497,24.003z"/>
<path fill="#D42029" d="M14.239,24.003c3.182,0.182,7.16,0,10.915,0.147l-4.86,4.928C13.499,27.439,6.826,25.488,0,23.857
	L14.239,24.003z"/>
<path fill="#D42029" d="M30.612,29.698c-1.743,6.172-3.317,12.463-4.976,18.667c-0.216-7.684-0.151-15.999-0.062-23.92
	C27.348,26.406,28.928,27.715,30.612,29.698z"/>
<path fill="#004E97" d="M21.097,34.622c-2.647,0.63-5.282,1.572-7.985,2.198c2.378-2.286,4.363-4.54,6.82-6.767
	C20.206,31.626,20.827,33.141,21.097,34.622z"/>
<path fill="#004E97" d="M53.245,89.015c-3.241,0-6.259-0.462-9.06-1.337c-2.822-0.915-5.28-2.295-7.381-4.196
	c-2.051-1.848-3.662-4.177-4.796-6.997c-1.154-2.788-1.728-6.021-1.728-9.712c0-4.752,0.826-9.175,2.415-13.275
	c1.617-4.05,3.865-7.631,6.778-10.668c2.884-2.995,6.364-5.377,10.489-7.125c4.103-1.756,8.569-2.61,13.373-2.61
	c2.871,0,5.72,0.325,8.599,1.07c2.813,0.729,5.476,1.79,7.912,3.159l-3.207,14.483h-2.135c-1.653-2.24-3.516-3.901-5.609-4.985
	c-2.086-1.082-4.438-1.657-7.03-1.657c-4.782,0-8.612,1.936-11.483,5.726c-2.884,3.802-4.326,8.557-4.326,14.224
	c0,3.951,0.896,6.896,2.674,8.862c1.786,1.977,4.524,2.939,8.313,2.939c2.911,0,5.572-0.693,7.947-2.039
	c2.394-1.344,4.467-2.837,6.168-4.508h2.163l-3.213,14.535c-3.025,1.474-5.693,2.535-7.968,3.165
	C59.862,88.709,56.907,89.015,53.245,89.015z"/>
<path fill="#004E97" d="M134.018,53.973c0,4.999-0.734,9.646-2.211,13.99c-1.52,4.352-3.592,8.075-6.295,11.178
	c-2.8,3.26-6.049,5.756-9.747,7.482c-3.704,1.756-8.045,2.629-12.967,2.629c-7.044,0-12.443-1.894-16.223-5.666
	c-3.739-3.776-5.623-8.992-5.623-15.684c0-4.718,0.702-9.191,2.101-13.438c1.422-4.244,3.479-8.015,6.232-11.244
	c2.661-3.199,5.945-5.697,9.837-7.555c3.858-1.835,8.234-2.746,13.065-2.746c7.065,0,12.477,1.883,16.216,5.582
	C132.156,42.245,134.018,47.404,134.018,53.973z M114.322,71.384c1.302-2.213,2.269-4.616,2.935-7.243
	c0.659-2.63,0.994-5.785,0.994-9.563c0-3.237-0.644-5.723-1.904-7.479c-1.261-1.739-3.278-2.614-6.008-2.614
	c-2.143,0-4.011,0.575-5.629,1.732c-1.603,1.173-3.053,2.818-4.271,4.954c-1.149,1.999-2.051,4.458-2.717,7.39
	c-0.664,2.939-0.979,5.942-0.979,9.027c0,3.623,0.7,6.221,2.128,7.778c1.429,1.548,3.41,2.332,5.888,2.332
	c1.842,0,3.592-0.55,5.273-1.661C111.717,74.896,113.16,73.357,114.322,71.384z"/>
<path fill="#004E97" d="M168.951,14.114l-15.159,73.479h-15.236l15.18-73.479H168.951z"/>
<path fill="#004E97" d="M222.494,53.973c0,4.999-0.742,9.646-2.212,13.99c-1.505,4.352-3.585,8.075-6.273,11.178
	c-2.801,3.26-6.063,5.756-9.774,7.482c-3.69,1.756-8.025,2.629-12.961,2.629c-7.044,0-12.428-1.894-16.195-5.666
	c-3.774-3.776-5.658-8.992-5.658-15.684c0-4.718,0.693-9.191,2.101-13.438c1.415-4.244,3.486-8.015,6.232-11.244
	c2.682-3.199,5.951-5.697,9.859-7.555c3.872-1.835,8.24-2.746,13.043-2.746c7.073,0,12.484,1.883,16.238,5.582
	C220.638,42.245,222.494,47.404,222.494,53.973z M202.811,71.384c1.289-2.213,2.27-4.616,2.941-7.243
	c0.638-2.63,0.981-5.785,0.981-9.563c0-3.237-0.644-5.723-1.883-7.479c-1.281-1.739-3.284-2.614-6.028-2.614
	c-2.164,0-4.02,0.575-5.617,1.732c-1.631,1.173-3.052,2.818-4.305,4.954c-1.136,1.999-2.031,4.458-2.696,7.39
	c-0.672,2.939-1.001,5.942-1.001,9.027c0,3.623,0.721,6.221,2.149,7.778c1.442,1.548,3.403,2.332,5.882,2.332
	c1.833,0,3.592-0.55,5.279-1.661C200.201,74.896,201.629,73.357,202.811,71.384z"/>
<path fill="#004E97" d="M282.416,46.526c0,0.957-0.07,1.979-0.176,3.077c-0.103,1.111-0.278,2.249-0.545,3.457l-7.087,34.532
	h-15.291l5.398-26.316c0.378-1.961,0.7-3.635,0.932-5.021c0.224-1.379,0.336-2.668,0.336-3.871c0-2.063-0.476-3.541-1.408-4.494
	c-0.924-0.953-2.625-1.429-5.09-1.429c-1.204,0-2.612,0.299-4.173,0.868c-1.583,0.603-3.361,1.483-5.3,2.647l-7.744,37.616h-15.236
	l10.937-53.085h15.236l-1.225,5.876c3.109-2.313,5.958-4.101,8.535-5.375c2.563-1.289,5.399-1.914,8.479-1.914
	c4.236,0,7.527,1.124,9.893,3.437C281.239,38.815,282.416,42.172,282.416,46.526z"/>
<path fill="#004E97" d="M314.52,34.508l-10.902,53.085h-15.216l10.923-53.085H314.52z M319.239,14.042l-2.661,12.905h-16.077
	l2.66-12.905H319.239z"/>
<path fill="#004E97" d="M347.573,81.949c-0.93,0.696-2.093,1.532-3.45,2.528c-1.337,0.979-2.569,1.74-3.731,2.317
	c-1.563,0.716-3.033,1.273-4.412,1.648c-1.373,0.368-3.27,0.571-5.707,0.571c-3.908,0-7.128-1.231-9.593-3.705
	c-2.492-2.47-3.74-5.7-3.74-9.678c0-4.192,0.897-7.74,2.661-10.672c1.737-2.893,4.356-5.229,7.85-6.961
	c3.248-1.646,7.114-2.809,11.616-3.56c4.481-0.704,9.362-1.23,14.592-1.594c0.028-0.196,0.085-0.498,0.202-0.935
	c0.064-0.435,0.115-0.928,0.115-1.452c0-2.239-0.919-3.782-2.753-4.705c-1.863-0.908-4.634-1.354-8.283-1.354
	c-2.493,0-5.251,0.475-8.255,1.392c-3.003,0.938-5.258,1.727-6.792,2.34h-1.379l2.228-12.507c1.764-0.497,4.509-1.068,8.206-1.699
	c3.675-0.623,7.359-0.913,11.048-0.913c7.381,0,12.823,1.076,16.264,3.232c3.479,2.18,5.193,5.57,5.193,10.139
	c0,0.619-0.034,1.435-0.139,2.459c-0.093,0.992-0.219,1.885-0.393,2.63l-7.438,36.12h-15.056L347.573,81.949z M351.629,62.56
	c-2.703,0.261-5.238,0.565-7.583,0.895c-2.36,0.359-4.383,0.86-6.029,1.503c-1.743,0.707-3.046,1.687-3.936,2.935
	c-0.903,1.261-1.351,2.936-1.351,5.02c0,1.83,0.596,3.102,1.792,3.838c1.198,0.738,2.934,1.1,5.203,1.1
	c1.477,0,3.102-0.37,4.804-1.137c1.679-0.76,3.291-1.754,4.782-2.948L351.629,62.56z"/>
<path fill="#D42029" d="M402.031,89.015c-8.064,0-14.27-1.992-18.681-5.983c-4.361-4.001-6.547-9.524-6.547-16.591
	c0-4.811,0.708-9.229,2.135-13.27c1.437-4.014,3.502-7.563,6.197-10.635c2.59-2.937,5.812-5.301,9.691-7.013
	c3.878-1.732,8.13-2.604,12.764-2.604c7.06,0,12.358,1.589,15.943,4.797c3.569,3.186,5.365,7.933,5.365,14.137
	c0,2.146-0.185,4.236-0.563,6.287c-0.37,2.058-0.896,4.075-1.497,6.1h-35.221c0,0.188,0,0.367,0,0.552c0,0.166,0,0.354,0,0.532
	c0,3.683,1.15,6.547,3.461,8.64c2.324,2.075,5.858,3.096,10.627,3.096c3.32,0,6.47-0.641,9.432-1.881
	c2.97-1.248,5.587-2.624,7.78-4.164h1.687l-2.828,13.631c-2.949,1.435-6.07,2.529-9.32,3.274
	C409.194,88.654,405.741,89.015,402.031,89.015z M413.662,54.258c0.099-0.555,0.159-1.087,0.21-1.542
	c0.036-0.47,0.048-0.964,0.048-1.481c0-2.482-0.693-4.381-2.086-5.733c-1.372-1.333-3.375-1.979-5.973-1.979
	c-3.131,0-5.791,0.953-7.924,2.84c-2.117,1.88-3.746,4.527-4.841,7.896H413.662z"/>
<path fill="#D42029" d="M451.058,60.598l-13.324-26.09h16.308l7.563,16.137l13.568-16.137h17.461l-24.26,26.688l13.48,26.397
	h-16.295l-7.598-16.209l-14.03,16.209h-17.437L451.058,60.598z"/>
<path fill="#D42029" d="M545.954,51.509c0,4.861-0.724,9.599-2.136,14.168c-1.424,4.603-3.354,8.538-5.798,11.846
	c-2.565,3.492-5.438,6.202-8.647,8.174c-3.217,1.938-6.837,2.943-10.793,2.943c-2.538,0-4.855-0.336-6.985-0.981
	c-2.096-0.636-4.026-1.558-5.729-2.722l-4.55,22.072h-15.208l14.95-72.501h15.22l-1.146,5.513c2.877-2.168,5.511-3.902,7.948-5.1
	c2.421-1.242,5.096-1.827,8.035-1.827c4.773,0,8.449,1.618,10.995,4.87C544.67,41.252,545.954,45.739,545.954,51.509z
	 M526.176,70.119c1.209-1.98,2.124-4.307,2.77-6.984c0.64-2.657,0.973-5.537,0.973-8.661c0-2.888-0.562-5.052-1.682-6.584
	c-1.12-1.527-3.12-2.302-6.001-2.302c-1.504,0-2.941,0.3-4.376,0.873c-1.426,0.603-2.95,1.351-4.526,2.291l-5.492,26.69
	c0.919,0.469,1.953,0.812,3.136,1.042c1.181,0.228,2.427,0.339,3.674,0.339c2.56,0,4.807-0.612,6.767-1.85
	C523.391,73.764,524.972,72.125,526.176,70.119z"/>
<path fill="#D42029" d="M592.271,50.696h-1.347c-0.684-0.248-1.623-0.436-2.85-0.54c-1.257-0.124-2.457-0.18-3.681-0.18
	c-1.971,0-3.901,0.159-5.75,0.482c-1.848,0.329-3.762,0.868-5.708,1.604l-7.319,35.53h-15.241l10.937-53.085h15.232l-1.599,7.796
	c2.839-2.368,5.713-4.273,8.562-5.747c2.831-1.459,5.712-2.198,8.604-2.198c0.499,0,1.134,0,1.789,0.049
	c0.642,0.032,1.224,0.083,1.751,0.146L592.271,50.696z"/>
<path fill="#D42029" d="M619.878,89.015c-8.072,0-14.288-1.992-18.681-5.983c-4.37-4.001-6.57-9.524-6.57-16.591
	c0-4.811,0.711-9.229,2.146-13.27c1.421-4.014,3.481-7.563,6.207-10.635c2.567-2.937,5.793-5.301,9.66-7.013
	c3.875-1.732,8.153-2.604,12.779-2.604c7.054,0,12.374,1.589,15.962,4.797c3.576,3.186,5.366,7.933,5.366,14.137
	c0,2.146-0.201,4.236-0.576,6.287c-0.36,2.058-0.883,4.075-1.485,6.1h-35.237c0,0.188,0,0.367,0,0.552c0,0.166,0,0.354,0,0.532
	c0,3.683,1.137,6.547,3.469,8.64c2.316,2.075,5.862,3.096,10.609,3.096c3.337,0,6.484-0.641,9.461-1.881
	c2.966-1.248,5.552-2.624,7.753-4.164h1.682l-2.832,13.631c-2.934,1.435-6.029,2.529-9.302,3.274
	C627.032,88.654,623.557,89.015,619.878,89.015z M631.502,54.258c0.085-0.555,0.146-1.087,0.193-1.542
	c0.038-0.47,0.068-0.964,0.068-1.481c0-2.482-0.701-4.381-2.09-5.733c-1.382-1.333-3.377-1.979-5.996-1.979
	c-3.125,0-5.756,0.953-7.896,2.84c-2.13,1.88-3.73,4.527-4.86,7.896H631.502z"/>
<path fill="#D42029" d="M668.576,89.015c-4.053,0-7.946-0.422-11.717-1.269c-3.792-0.883-6.685-1.855-8.717-2.965l2.913-14.013
	h1.386c0.626,0.615,1.402,1.271,2.34,2.004c0.935,0.704,2.269,1.484,3.995,2.274c1.511,0.733,3.229,1.349,5.175,1.868
	c1.971,0.539,4.087,0.784,6.367,0.784c3.381,0,5.933-0.438,7.651-1.313c1.679-0.896,2.519-2.171,2.519-3.78
	c0-1.277-0.568-2.237-1.8-2.905c-1.2-0.646-3.706-1.471-7.484-2.431c-6.446-1.682-10.836-3.697-13.196-6.046
	c-2.393-2.367-3.557-5.289-3.557-8.829c0-5.995,2.37-10.692,7.151-14.158c4.759-3.427,11.21-5.142,19.325-5.142
	c3.522,0,7.069,0.392,10.606,1.196c3.523,0.807,6.126,1.664,7.774,2.566l-2.781,13.431h-1.311c-1.981-1.723-4.409-3.161-7.22-4.248
	c-2.827-1.104-5.717-1.639-8.691-1.639c-3.238,0-5.732,0.429-7.451,1.278c-1.726,0.908-2.601,2.227-2.601,4.006
	c0,1.391,0.752,2.455,2.24,3.204c1.491,0.748,3.824,1.5,7.048,2.302c5.933,1.425,10.218,3.263,12.843,5.451
	c2.617,2.202,3.929,5.294,3.929,9.253c0,5.911-2.401,10.601-7.219,14.001C683.287,87.319,676.777,89.015,668.576,89.015z"/>
<path fill="#D42029" d="M719.685,89.015c-4.054,0-7.957-0.422-11.743-1.269c-3.779-0.883-6.688-1.855-8.695-2.965l2.897-14.013
	h1.403c0.595,0.615,1.385,1.271,2.329,2.004c0.924,0.704,2.28,1.484,4.026,2.274c1.465,0.733,3.199,1.349,5.173,1.868
	c1.942,0.539,4.1,0.784,6.342,0.784c3.407,0,5.937-0.438,7.634-1.313c1.694-0.896,2.553-2.171,2.553-3.78
	c0-1.277-0.614-2.237-1.822-2.905c-1.194-0.646-3.704-1.471-7.486-2.431c-6.422-1.682-10.814-3.697-13.198-6.046
	c-2.37-2.367-3.558-5.289-3.558-8.829c0-5.995,2.385-10.692,7.157-14.158c4.76-3.427,11.207-5.142,19.337-5.142
	c3.527,0,7.074,0.392,10.584,1.196c3.542,0.807,6.128,1.664,7.805,2.566l-2.808,13.431h-1.305c-1.979-1.723-4.398-3.161-7.202-4.248
	c-2.841-1.104-5.738-1.639-8.714-1.639c-3.239,0-5.699,0.429-7.443,1.278c-1.732,0.908-2.586,2.227-2.586,4.006
	c0,1.391,0.737,2.455,2.254,3.204c1.468,0.748,3.815,1.5,6.98,2.302c5.986,1.425,10.271,3.263,12.89,5.451
	c2.637,2.202,3.93,5.294,3.93,9.253c0,5.911-2.412,10.601-7.216,14.001C734.375,87.319,727.865,89.015,719.685,89.015z"/>
</svg>
